name jw_ngait_og1_new_v4_converted.mot
datacolumns 60
datarows 4
range 2.30670000 2.33170000
endheader
time	pelvis_rz	pelvis_rx	pelvis_ry	pelvis_tx	pelvis_ty	pelvis_tz	hip_flexion	hip_adduction	hip_rotation	knee_flexion	knee_adduction	knee_rotation	knee_tx	knee_ty	knee_tz	patfem_adduction	patfem_rotation	patfem_flexion	patfem_tx	patfem_ty	patfem_tz	ankle_angle	subtalar_angle	mtp_angle	hip_flexion_l	hip_adduction_l	hip_rotation_l	knee_flexion_l	knee_adduction_l	knee_rotation_l	knee_tx_l	knee_ty_l	knee_tz_l	patfem_adduction_l	patfem_rotation_l	patfem_flexion_l	patfem_tx_l	patfem_ty_l	patfem_tz_l	ankle_angle_l	subtalar_angle_l	mtp_angle_l	lumbar_extension	lumbar_bending	lumbar_rotation	arm_flex_r	arm_add_r	arm_rot_r	elbow_flex_r	pro_sup_r	wrist_flex_r	wrist_dev_r	arm_flex_l	arm_add_l	arm_rot_l	elbow_flex_l	pro_sup_l	wrist_flex_l	wrist_dev_l	
          2.30670000	          9.98492564	         -1.98001516	          7.75755307	         -0.02975038	          0.95770998	          0.12745455	        -24.34989582	          5.98825395	        -17.12440943	        -19.80903434	         -0.00000000	          0.00000000	          0.00000000	          0.04199999	          0.00000000	         -0.00000000	          0.00005428	         70.14533949	          0.00000000	          0.03999883	          0.00000000	         11.62684058	         -4.56841834	          0.00000000	         20.34356886	          0.49256132	          4.31225846	        -19.02208668	          0.00000189	          0.00000000	         -0.00000000	          0.04190696	          0.00000000	         -0.00000000	          0.00005428	         70.93228716	          0.00000000	         -0.00000000	          0.00000000	         -0.02616066	         -2.75016697	          0.00000000	        -28.22726048	          2.57396012	         -2.68271239	         17.23599373	        -27.57600336	         79.30535371	         31.43232223	         89.99827303	          0.00000000	          0.00000000	         10.04862045	        -18.55668375	         80.11684123	         18.63887761	         89.99827303	          0.00000000	          0.00000000	
          2.31500000	         10.35299529	         -0.89274611	          8.01519194	         -0.01772237	          0.95869148	          0.12610518	        -23.78267188	          4.36589313	        -18.41588977	        -23.00823609	         -0.00000000	          0.00000000	          0.00000000	          0.04199999	          0.00000000	         -0.00000000	          0.00005428	         66.94613774	          0.00000000	          0.03999883	          0.00000000	         10.41090636	         -3.87207048	          0.00000000	         19.52246254	          1.73210466	          4.37156816	        -19.91014393	          0.00000189	          0.00000000	         -0.00000000	          0.04190696	          0.00000000	         -0.00000000	          0.00005428	         70.04422991	          0.00000000	         -0.00000000	          0.00000000	         -0.51437850	         -3.52286536	          0.00000000	        -28.47364582	          1.44584555	         -2.92816727	         16.85701396	        -27.06321045	         79.62950555	         30.83083792	         89.99827303	          0.00000000	          0.00000000	         10.69180963	        -18.74933777	         81.81995704	         18.39364987	         89.99827303	          0.00000000	          0.00000000	
          2.32330000	         10.75330975	         -0.85203685	          8.37471204	         -0.00649055	          0.95974418	          0.12469188	        -23.05991991	          4.00037230	        -18.63438139	        -25.93296838	         -0.00000000	          0.00000000	          0.00000000	          0.04199999	          0.00000000	         -0.00000000	          0.00005428	         64.02140545	          0.00000000	          0.03999883	          0.00000000	          8.01853914	         -4.03766673	          0.00000000	         19.02564257	          1.84824764	          4.56929070	        -21.06830842	          0.00000189	          0.00000000	         -0.00000000	          0.04190696	          0.00000000	         -0.00000000	          0.00005428	         68.88606542	          0.00000000	         -0.00000000	          0.00000000	         -0.20587381	         -3.38284063	          0.00000000	        -28.80008613	          1.50531854	         -2.77175091	         16.36879099	        -27.07667721	         78.73059766	         30.95543681	         89.99827303	          0.00000000	          0.00000000	         11.04344342	        -18.99973333	         80.76402895	         18.81663087	         89.99827303	          0.00000000	          0.00000000	
          2.33170000	         10.43419016	         -0.08576124	          8.67660020	          0.00484916	          0.96002905	          0.12324939	        -21.28929232	          2.66012349	        -19.03801846	        -29.64897874	         -0.00000000	          0.00000000	          0.00000000	          0.04199999	          0.00000000	         -0.00000000	          0.00005428	         60.30539509	          0.00000000	          0.03999883	          0.00000000	          5.77994492	         -4.98775221	          0.00000000	         19.05942122	          2.93615900	          5.11147882	        -22.03417319	          0.00000189	          0.00000000	         -0.00000000	          0.04190696	          0.00000000	         -0.00000000	          0.00005428	         67.92020064	          0.00000000	         -0.00000000	          0.00000000	         -0.28452226	         -4.12535563	          0.00000000	        -28.30333014	          0.69769013	         -3.02510002	         16.18468081	        -26.59856381	         79.65912694	         30.36663553	         89.99827303	          0.00000000	          0.00000000	         11.65342810	        -19.03459844	         82.44560823	         18.39304502	         89.99827303	          0.00000000	          0.00000000	
